<svg width="114" height="19" viewBox="0 0 114 19" fill="none" xmlns="http://www.w3.org/2000/svg">
<g clip-path="url(#clip0_0_97)">
<path d="M106.019 9.92274C106.019 7.13239 107.483 4.47022 111.126 4.47022C113.252 4.47022 114.003 5.68546 114.003 6.74416V7.98527H113.877C113.248 7.70971 112.566 7.56858 111.877 7.57116C110.337 7.57116 109.49 8.42404 109.49 10.5427V18.5538H108.54C107.001 18.5538 106.026 17.7798 106.026 16.3354L106.019 9.92274ZM10.6391 11.9933C10.6391 7.82012 13.0775 4.47515 17.6418 4.47515C21.8872 4.47515 24.3243 7.82505 24.3243 11.509C24.3243 15.6821 21.8872 19.0049 17.3217 19.0049C13.0775 19.0049 10.6391 15.6772 10.6391 11.9982M14.2817 11.5053C14.2817 14.2623 15.3046 15.9102 17.6368 15.9102C19.6813 15.9102 20.6767 14.2623 20.6767 11.9945C20.6767 9.21283 19.6288 7.5576 17.3217 7.5576C15.3046 7.5576 14.2817 9.2079 14.2817 11.5016M5.0532 0.749351H6.25617C7.85303 0.749351 8.66459 1.57019 8.66459 3.13544V13.6017C8.66459 16.4771 7.01521 18.6315 3.32504 18.6315C1.36179 18.6315 1.52588e-05 17.6825 1.52588e-05 16.6053V14.9846H0.131314C0.707785 15.3186 1.75694 15.549 2.82735 15.549C4.45297 15.549 5.0532 14.8564 5.0532 13.4452V0.749351ZM26.2213 0.00985987H27.4255C28.7886 0.00985987 29.7327 0.778931 29.7327 2.39595V6.41879C30.4392 5.41801 31.6459 4.31493 33.5591 4.31493C37.1493 4.31493 39.9016 7.18786 39.9016 11.2674C39.9016 15.4221 37.1755 18.7855 32.8776 18.7855C29.2612 18.7855 26.2213 15.8867 26.2213 11.732V0.00985987ZM29.7577 11.2452C29.7577 14.4262 31.147 15.7339 33.244 15.7339C34.9947 15.7339 36.2577 14.091 36.2577 11.8602C36.2577 8.50045 35.026 7.3715 32.8814 7.3715C31.0994 7.3715 29.7552 9.09081 29.7552 11.2452M49.4227 0.749351H50.8895C51.4771 0.736758 52.0573 0.88053 52.5689 1.16553C53.0805 1.45053 53.5048 1.86622 53.7969 2.36884C55.4225 5.23067 58.1186 12.8363 58.8251 18.4035H57.3583C55.8652 18.4035 55.0799 17.5543 54.9486 16.7026C54.8314 15.758 54.6644 14.8201 54.4484 13.8926H47.3007C46.9355 15.3888 46.6204 16.9085 46.3578 18.4035H44.971C43.7918 18.4035 43.3216 17.7872 43.3216 16.7026C43.3216 14.1502 46.6729 3.76155 49.4227 0.745654M50.8633 3.99325C49.8154 5.82349 48.6899 8.63726 48.0872 11.0825H53.6393C53.0366 8.60891 51.8061 5.64355 50.8633 3.99325ZM70.3708 0H71.4524C73.1393 0 73.8784 0.949014 73.8784 2.33433V12.0882C73.8784 16.1147 71.9264 18.7831 67.0457 18.7831C63.3006 18.7831 60.4257 15.602 60.4257 11.806C60.4257 7.2655 62.6941 4.31493 66.8344 4.31493C68.26 4.31493 69.8156 5.28983 70.3708 6.4952V0ZM63.907 11.133C63.907 14.0047 65.4376 15.8781 67.4684 15.8781C69.4467 15.8781 70.317 14.441 70.317 11.9342C70.317 8.47087 68.7601 7.21374 66.8619 7.21374C65.0675 7.21374 63.907 8.90717 63.907 11.1392M85.9455 0H87.0259C88.7141 0 89.4531 0.949014 89.4531 2.33433V12.0882C89.4531 16.1147 87.5011 18.7831 82.6217 18.7831C78.8703 18.7831 76.0017 15.602 76.0017 11.806C76.0017 7.2655 78.2688 4.31493 82.4104 4.31493C83.8347 4.31493 85.3903 5.28983 85.9455 6.4952V0ZM79.4818 11.133C79.4818 14.0047 81.0136 15.8781 83.0431 15.8781C85.0214 15.8781 85.8917 14.441 85.8917 11.9342C85.8917 8.47087 84.3361 7.21374 82.4366 7.21374C80.6435 7.21374 79.4818 8.90717 79.4818 11.1392M91.5814 12.0254C91.5814 7.38752 94.4575 4.47639 98.4791 4.47639C101.404 4.47639 104.121 6.5371 104.121 9.86112C104.121 12.4111 102.162 13.2357 97.5124 13.2357H95.2128C95.4741 14.9883 97.0885 16.095 99.1581 16.095C100.621 16.095 102.344 15.8116 103.468 14.7812H103.594V15.8633C103.594 17.6406 102.367 19.0062 98.4991 19.0062C94.9977 19.0062 91.5764 16.2762 91.5764 12.0254M95.2028 10.3245L95.1765 10.7879H96.7534C100.072 10.7879 100.83 10.4281 100.83 9.44823C100.83 8.05799 99.7846 7.36164 98.1652 7.36164C96.4658 7.36164 95.2891 8.72723 95.2128 10.3196" fill="#5361E4"/>
</g>
<defs>
<clipPath id="clip0_0_97">
<rect width="114" height="19" fill="white"/>
</clipPath>
</defs>
</svg>
